<svg width="53" height="53" fill="none" xmlns="http://www.w3.org/2000/svg"><path d="M31.572 26.5a5.072 5.072 0 11-10.144 0 5.072 5.072 0 0110.144 0z" fill="#fff"/><path d="M38.362 17.526a4.714 4.714 0 00-1.138-1.75 4.713 4.713 0 00-1.75-1.138c-.536-.208-1.341-.456-2.825-.524-1.605-.073-2.086-.089-6.149-.089-4.063 0-4.544.015-6.149.089-1.483.068-2.29.316-2.825.524a4.71 4.71 0 00-1.75 1.138 4.716 4.716 0 00-1.139 1.75c-.208.536-.456 1.342-.523 2.825-.073 1.605-.09 2.086-.09 6.15 0 4.062.017 4.544.09 6.149.067 1.483.315 2.288.523 2.825a4.716 4.716 0 001.139 1.75c.49.505 1.088.894 1.75 1.138.536.208 1.341.456 2.825.524 1.605.073 2.085.088 6.149.088s4.545-.015 6.149-.088c1.483-.068 2.29-.316 2.825-.524a5.039 5.039 0 002.888-2.888c.209-.537.456-1.342.524-2.825.074-1.605.089-2.087.089-6.15 0-4.063-.015-4.544-.089-6.149-.067-1.483-.315-2.29-.524-2.825zM26.5 34.314a7.814 7.814 0 110-15.628 7.814 7.814 0 010 15.628zm8.123-14.11a1.826 1.826 0 110-3.653 1.826 1.826 0 010 3.652z" fill="#fff"/><path d="M26.5 0C11.867 0 0 11.867 0 26.5S11.867 53 26.5 53 53 41.133 53 26.5 41.133 0 26.5 0zm15.125 32.774c-.074 1.62-.331 2.725-.707 3.693a7.78 7.78 0 01-4.45 4.45c-.968.377-2.075.634-3.694.708-1.623.074-2.141.092-6.274.092s-4.65-.018-6.274-.092c-1.62-.074-2.725-.331-3.693-.707a7.455 7.455 0 01-2.696-1.755 7.458 7.458 0 01-1.754-2.696c-.376-.967-.634-2.073-.708-3.693-.074-1.623-.092-2.142-.092-6.274 0-4.133.018-4.65.092-6.274.074-1.62.33-2.725.707-3.693a7.455 7.455 0 011.755-2.696 7.454 7.454 0 012.696-1.755c.968-.376 2.073-.633 3.693-.707 1.623-.074 2.142-.092 6.274-.092 4.133 0 4.65.018 6.274.092 1.62.074 2.725.331 3.693.707a7.46 7.46 0 012.696 1.755 7.456 7.456 0 011.755 2.696c.376.968.633 2.073.707 3.693.074 1.623.092 2.142.092 6.274 0 4.133-.018 4.65-.092 6.274z" fill="#fff"/></svg>