<svg width="112" height="49" viewBox="0 0 112 49" fill="none" xmlns="http://www.w3.org/2000/svg">
<path d="M105.585 0H93.0088C89.6951 0 87.0088 2.6863 87.0088 6V18.5763C87.0088 21.89 89.6951 24.5763 93.0088 24.5763H105.585C108.899 24.5763 111.585 21.89 111.585 18.5763V6C111.585 2.68629 108.899 0 105.585 0Z" fill="#EEEEFD"/>
<path d="M18.5763 0H6C2.68629 0 0 2.6863 0 6V18.5763C0 21.89 2.6863 24.5763 6 24.5763H18.5763C21.89 24.5763 24.5763 21.89 24.5763 18.5763V6C24.5763 2.68629 21.89 0 18.5763 0Z" fill="#EEEEFD"/>
<path d="M61.3175 0H48.7412C45.4275 0 42.7412 2.6863 42.7412 6V18.5763C42.7412 21.89 45.4275 24.5763 48.7412 24.5763H61.3175C64.6312 24.5763 67.3175 21.89 67.3175 18.5763V6C67.3175 2.68629 64.6312 0 61.3175 0Z" fill="#EEEEFD"/>
<path d="M39.9474 24.4238H27.3711C24.0574 24.4238 21.3711 27.1101 21.3711 30.4238V43.0001C21.3711 46.3138 24.0574 49.0001 27.3711 49.0001H39.9474C43.2611 49.0001 45.9474 46.3138 45.9474 43.0001V30.4238C45.9474 27.1101 43.2611 24.4238 39.9474 24.4238Z" fill="#EEEEFD"/>
<path d="M84.9787 24.042H72.4023C69.0886 24.042 66.4023 26.7283 66.4023 30.042V42.6183C66.4023 45.932 69.0886 48.6183 72.4023 48.6183H84.9787C88.2924 48.6183 90.9787 45.932 90.9787 42.6183V30.042C90.9787 26.7283 88.2924 24.042 84.9787 24.042Z" fill="#EEEEFD"/>
</svg>
