<svg width="68" height="92" viewBox="0 0 68 92" fill="none" xmlns="http://www.w3.org/2000/svg">
<path d="M33.6035 0C15.0743 0 0 15.0746 0 33.6045C0 44.7981 10.2961 62.4646 14.7226 69.5406C18.3642 75.3617 22.2735 80.896 25.7299 85.1241C31.3509 92 32.9295 92 33.6038 92C34.2509 92 35.766 92 41.3676 85.122C44.8328 80.867 48.7454 75.3337 52.3845 69.5427C56.8414 62.4497 67.208 44.7485 67.208 33.6045C67.208 15.0746 52.1334 0 33.6035 0ZM33.6038 60.7493C18.945 60.7493 7.01898 48.8233 7.01898 34.1645C7.01898 19.5057 18.945 7.57963 33.6038 7.57963C48.2626 7.57963 60.1887 19.5057 60.1887 34.1645C60.1887 48.8233 48.2626 60.7493 33.6038 60.7493Z" fill="#EEEEFD"/>
<path d="M53.014 23.9631C52.8298 23.9631 52.6407 23.9897 52.4522 24.0418L50.3176 24.6293L48.1016 19.2303C47.4736 17.7007 45.6174 16.4557 43.9638 16.4557H23.2189C21.5653 16.4557 19.7091 17.7003 19.0811 19.23L16.8675 24.6222L14.7599 24.0418C14.5714 23.99 14.3823 23.9631 14.1981 23.9631C13.1891 23.9631 12.457 24.7338 12.457 25.7956V27.0547C12.457 28.2939 13.4657 29.3026 14.705 29.3026H14.9465L14.5888 30.1735C14.0055 31.5952 13.5305 34.0011 13.5305 35.5375V46.2646C13.5305 47.5039 14.5392 48.5126 15.7785 48.5126H18.7149C19.9541 48.5126 20.9628 47.5039 20.9628 46.2646V43.586H46.2209V46.2646C46.2209 47.5039 47.2296 48.5126 48.4689 48.5126H51.4042C52.6435 48.5126 53.6522 47.5039 53.6522 46.2646V35.5375C53.6522 34.0011 53.1772 31.5952 52.5939 30.1735L52.2362 29.3026H52.5078C53.7471 29.3026 54.7558 28.2939 54.7558 27.0547V25.7956C54.7551 24.7338 54.023 23.9631 53.014 23.9631ZM18.4794 28.0814L21.8323 19.9135C22.2077 18.9983 23.3244 18.25 24.3136 18.25H42.8694C43.8583 18.25 44.9746 18.9987 45.3504 19.9135L48.7033 28.0814C49.0791 28.9966 48.5769 29.745 47.588 29.745H19.595C18.6062 29.745 18.1039 28.9966 18.4794 28.0814ZM25.9648 38.4119C25.9648 38.9064 25.56 39.3112 25.0655 39.3112H18.6961C18.2013 39.3112 17.7969 38.9064 17.7969 38.4119V35.3551C17.7969 34.8606 18.2017 34.4558 18.6961 34.4558H25.0655C25.56 34.4558 25.9648 34.8606 25.9648 35.3551V38.4119ZM49.3253 38.4119C49.3253 38.9064 48.9204 39.3112 48.426 39.3112H42.0573C41.5629 39.3112 41.1581 38.9064 41.1581 38.4119V35.3551C41.1581 34.8606 41.5629 34.4558 42.0573 34.4558H48.426C48.9204 34.4558 49.3253 34.8606 49.3253 35.3551V38.4119Z" fill="#EEEEFD"/>
</svg>
