<svg width="99" height="91" viewBox="0 0 99 91" fill="none" xmlns="http://www.w3.org/2000/svg">
<path d="M28.0698 0.000416527C27.1755 0.0145362 26.3233 0.386808 25.7004 1.03546C25.0775 1.68412 24.7348 2.55612 24.7477 3.45992V9.14434H16.372C14.7296 9.14434 13.1757 9.94769 12.2149 11.2938C11.2542 12.6398 10.9921 14.3878 11.5118 15.9612L13.0147 20.5132H43.2216L44.7289 15.9745C45.2531 14.3988 44.9909 12.6488 44.0302 11.2982C43.0694 9.94758 41.5178 9.14434 39.8731 9.14434H31.4974V3.45992C31.5039 3.00342 31.4196 2.55026 31.2496 2.12728C31.0796 1.70431 30.8273 1.32013 30.5077 0.99751C30.188 0.674893 29.8075 0.420407 29.3888 0.249133C28.97 0.0778585 28.5215 -0.00671769 28.0698 0.000416527ZM5.12243 25.0607C3.47999 25.0607 1.92607 25.8641 0.965357 27.2101C0.00464296 28.5562 -0.257472 30.3041 0.262258 31.8776L4.34462 44.2545C5.04435 46.3759 6.99977 47.7984 9.20919 47.7984H47.0051C49.2101 47.7984 51.1633 46.378 51.8653 44.2634L55.9784 31.8909C56.5027 30.3152 56.2405 28.5652 55.2797 27.2146C54.3213 25.864 52.7673 25.0607 51.1227 25.0607H5.12243ZM17.9979 52.3459V87.5893C17.9979 89.472 19.5076 91 21.3728 91H34.8723C36.7375 91 38.2472 89.472 38.2472 87.5893V52.3459H17.9979ZM42.747 56.8935V87.5893C42.747 88.8149 42.4509 89.9632 41.9604 91H89.3888C90.8738 91 92.1867 90.0189 92.6187 88.5841L98.5642 68.8219C99.4507 66.0047 98.9716 63.0245 97.2459 60.6416C95.5225 58.261 92.8541 56.8935 89.9337 56.8935H42.747ZM53.9966 65.9885H56.2465C57.4885 65.9885 58.4964 67.0072 58.4964 68.2623V81.9049C58.4964 83.16 57.4885 84.1787 56.2465 84.1787H53.9966C52.7546 84.1787 51.7467 83.16 51.7467 81.9049V68.2623C51.7467 67.0072 52.7546 65.9885 53.9966 65.9885ZM67.4961 65.9885H69.746C70.9879 65.9885 71.9959 67.0072 71.9959 68.2623V81.9049C71.9959 83.16 70.9879 84.1787 69.746 84.1787H67.4961C66.2541 84.1787 65.2462 83.16 65.2462 81.9049V68.2623C65.2462 67.0072 66.2541 65.9885 67.4961 65.9885ZM80.9956 65.9885H83.2455C84.4874 65.9885 85.4954 67.0072 85.4954 68.2623V81.9049C85.4954 83.16 84.4874 84.1787 83.2455 84.1787H80.9956C79.7536 84.1787 78.7457 83.16 78.7457 81.9049V68.2623C78.7457 67.0072 79.7536 65.9885 80.9956 65.9885Z" fill="#F7F2FD"/>
</svg>
