<svg width="110" height="110" viewBox="0 0 110 110" fill="none" xmlns="http://www.w3.org/2000/svg">
<path d="M34.0698 10.0004C33.1755 10.0145 32.3233 10.3868 31.7004 11.0355C31.0775 11.6841 30.7348 12.5561 30.7477 13.4599V19.1443H22.372C20.7296 19.1443 19.1757 19.9477 18.2149 21.2938C17.2542 22.6398 16.9921 24.3878 17.5118 25.9612L19.0147 30.5132H49.2216L50.7289 25.9745C51.2531 24.3988 50.9909 22.6488 50.0302 21.2982C49.0694 19.9476 47.5178 19.1443 45.8731 19.1443H37.4974V13.4599C37.5039 13.0034 37.4196 12.5503 37.2496 12.1273C37.0796 11.7043 36.8273 11.3201 36.5077 10.9975C36.188 10.6749 35.8075 10.4204 35.3888 10.2491C34.97 10.0779 34.5215 9.99328 34.0698 10.0004ZM11.1224 35.0607C9.47999 35.0607 7.92607 35.8641 6.96536 37.2101C6.00464 38.5562 5.74253 40.3041 6.26226 41.8776L10.3446 54.2545C11.0443 56.3759 12.9998 57.7984 15.2092 57.7984H53.0051C55.2101 57.7984 57.1633 56.378 57.8653 54.2634L61.9784 41.8909C62.5027 40.3152 62.2405 38.5652 61.2797 37.2146C60.3213 35.864 58.7673 35.0607 57.1227 35.0607H11.1224ZM23.9979 62.3459V97.5893C23.9979 99.472 25.5076 101 27.3728 101H40.8723C42.7375 101 44.2472 99.472 44.2472 97.5893V62.3459H23.9979ZM48.747 66.8935V97.5893C48.747 98.8149 48.4509 99.9632 47.9604 101H95.3888C96.8738 101 98.1867 100.019 98.6187 98.5841L104.564 78.8219C105.451 76.0047 104.972 73.0245 103.246 70.6416C101.522 68.261 98.8541 66.8935 95.9337 66.8935H48.747ZM59.9966 75.9885H62.2465C63.4885 75.9885 64.4964 77.0072 64.4964 78.2623V91.9049C64.4964 93.16 63.4885 94.1787 62.2465 94.1787H59.9966C58.7546 94.1787 57.7467 93.16 57.7467 91.9049V78.2623C57.7467 77.0072 58.7546 75.9885 59.9966 75.9885ZM73.4961 75.9885H75.746C76.9879 75.9885 77.9959 77.0072 77.9959 78.2623V91.9049C77.9959 93.16 76.9879 94.1787 75.746 94.1787H73.4961C72.2541 94.1787 71.2462 93.16 71.2462 91.9049V78.2623C71.2462 77.0072 72.2541 75.9885 73.4961 75.9885ZM86.9956 75.9885H89.2455C90.4874 75.9885 91.4954 77.0072 91.4954 78.2623V91.9049C91.4954 93.16 90.4874 94.1787 89.2455 94.1787H86.9956C85.7536 94.1787 84.7457 93.16 84.7457 91.9049V78.2623C84.7457 77.0072 85.7536 75.9885 86.9956 75.9885Z" fill="#F7F2FD"/>
</svg>
