<svg width="112" height="110" viewBox="0 0 112 110" fill="none" xmlns="http://www.w3.org/2000/svg">
<path d="M105.585 31H93.0088C89.6951 31 87.0088 33.6863 87.0088 37V49.5763C87.0088 52.89 89.6951 55.5763 93.0088 55.5763H105.585C108.899 55.5763 111.585 52.89 111.585 49.5763V37C111.585 33.6863 108.899 31 105.585 31Z" fill="#EEEEFD"/>
<path d="M18.5763 31H6C2.68629 31 0 33.6863 0 37V49.5763C0 52.89 2.6863 55.5763 6 55.5763H18.5763C21.89 55.5763 24.5763 52.89 24.5763 49.5763V37C24.5763 33.6863 21.89 31 18.5763 31Z" fill="#EEEEFD"/>
<path d="M61.3175 31H48.7412C45.4275 31 42.7412 33.6863 42.7412 37V49.5763C42.7412 52.89 45.4275 55.5763 48.7412 55.5763H61.3175C64.6312 55.5763 67.3175 52.89 67.3175 49.5763V37C67.3175 33.6863 64.6312 31 61.3175 31Z" fill="#EEEEFD"/>
<path d="M39.9474 55.4238H27.3711C24.0574 55.4238 21.3711 58.1101 21.3711 61.4238V74.0001C21.3711 77.3138 24.0574 80.0001 27.3711 80.0001H39.9474C43.2611 80.0001 45.9474 77.3138 45.9474 74.0001V61.4238C45.9474 58.1101 43.2611 55.4238 39.9474 55.4238Z" fill="#EEEEFD"/>
<path d="M84.9787 55.042H72.4023C69.0886 55.042 66.4023 57.7283 66.4023 61.042V73.6183C66.4023 76.932 69.0886 79.6183 72.4023 79.6183H84.9787C88.2924 79.6183 90.9787 76.932 90.9787 73.6183V61.042C90.9787 57.7283 88.2924 55.042 84.9787 55.042Z" fill="#EEEEFD"/>
</svg>
