<svg width="110" height="110" viewBox="0 0 110 110" fill="none" xmlns="http://www.w3.org/2000/svg">
<path d="M54.6035 9C36.0743 9 21 24.0746 21 42.6045C21 53.7981 31.2961 71.4646 35.7226 78.5406C39.3642 84.3617 43.2735 89.896 46.7299 94.1241C52.3509 101 53.9295 101 54.6038 101C55.2509 101 56.766 101 62.3676 94.122C65.8328 89.867 69.7454 84.3337 73.3845 78.5427C77.8414 71.4497 88.208 53.7485 88.208 42.6045C88.208 24.0746 73.1334 9 54.6035 9ZM54.6038 69.7493C39.945 69.7493 28.019 57.8233 28.019 43.1645C28.019 28.5057 39.945 16.5796 54.6038 16.5796C69.2626 16.5796 81.1887 28.5057 81.1887 43.1645C81.1887 57.8233 69.2626 69.7493 54.6038 69.7493Z" fill="#EEEEFD"/>
<path d="M74.014 32.9629C73.8298 32.9629 73.6407 32.9895 73.4522 33.0416L71.3176 33.6291L69.1016 28.2301C68.4736 26.7005 66.6174 25.4556 64.9638 25.4556H44.2189C42.5653 25.4556 40.7091 26.7001 40.0811 28.2298L37.8675 33.6221L35.7599 33.0416C35.5714 32.9899 35.3823 32.9629 35.1981 32.9629C34.1891 32.9629 33.457 33.7336 33.457 34.7954V36.0545C33.457 37.2938 34.4657 38.3024 35.705 38.3024H35.9465L35.5888 39.1734C35.0055 40.595 34.5305 43.0009 34.5305 44.5373V55.2644C34.5305 56.5037 35.5392 57.5124 36.7785 57.5124H39.7149C40.9541 57.5124 41.9628 56.5037 41.9628 55.2644V52.5858H67.2209V55.2644C67.2209 56.5037 68.2296 57.5124 69.4689 57.5124H72.4042C73.6435 57.5124 74.6522 56.5037 74.6522 55.2644V44.5373C74.6522 43.0009 74.1772 40.595 73.5939 39.1734L73.2362 38.3024H73.5078C74.7471 38.3024 75.7558 37.2938 75.7558 36.0545V34.7954C75.7551 33.7336 75.023 32.9629 74.014 32.9629ZM39.4794 37.0813L42.8323 28.9133C43.2077 27.9982 44.3244 27.2498 45.3136 27.2498H63.8694C64.8583 27.2498 65.9746 27.9985 66.3504 28.9133L69.7033 37.0813C70.0791 37.9964 69.5769 38.7448 68.588 38.7448H40.595C39.6062 38.7448 39.1039 37.9964 39.4794 37.0813ZM46.9648 47.4117C46.9648 47.9062 46.56 48.311 46.0655 48.311H39.6961C39.2013 48.311 38.7969 47.9062 38.7969 47.4117V44.3549C38.7969 43.8605 39.2017 43.4556 39.6961 43.4556H46.0655C46.56 43.4556 46.9648 43.8605 46.9648 44.3549V47.4117ZM70.3253 47.4117C70.3253 47.9062 69.9204 48.311 69.426 48.311H63.0573C62.5629 48.311 62.1581 47.9062 62.1581 47.4117V44.3549C62.1581 43.8605 62.5629 43.4556 63.0573 43.4556H69.426C69.9204 43.4556 70.3253 43.8605 70.3253 44.3549V47.4117Z" fill="#EEEEFD"/>
</svg>
