<svg width="68" height="92" fill="none" xmlns="http://www.w3.org/2000/svg"><path d="M33.603 0C15.074 0 0 15.075 0 33.605c0 11.193 10.296 28.86 14.723 35.936 3.641 5.82 7.55 11.355 11.007 15.583C31.35 92 32.93 92 33.604 92c.647 0 2.162 0 7.764-6.878 3.465-4.255 7.377-9.788 11.017-15.58 4.456-7.092 14.823-24.794 14.823-35.938C67.208 15.075 52.133 0 33.603 0zm0 60.75C18.946 60.75 7.02 48.822 7.02 34.163c0-14.658 11.926-26.584 26.585-26.584S60.19 19.505 60.19 34.163c0 14.66-11.926 26.585-26.585 26.585z" fill="#EEEEFD"/><path d="M53.014 23.963c-.184 0-.373.027-.562.079l-2.134.587-2.216-5.399c-.628-1.53-2.485-2.774-4.138-2.774H23.219c-1.654 0-3.51 1.244-4.138 2.774l-2.213 5.392-2.108-.58a2.125 2.125 0 00-.562-.079c-1.009 0-1.741.77-1.741 1.833v1.259a2.25 2.25 0 002.248 2.248h.242l-.358.87c-.584 1.422-1.059 3.828-1.059 5.365v10.727a2.25 2.25 0 002.248 2.248h2.937a2.25 2.25 0 002.248-2.248v-2.679H46.22v2.679a2.25 2.25 0 002.248 2.248h2.935a2.25 2.25 0 002.248-2.248V35.538c0-1.537-.475-3.943-1.058-5.364l-.358-.871h.272a2.25 2.25 0 002.248-2.248v-1.26c0-1.061-.733-1.832-1.742-1.832zm-34.535 4.118l3.353-8.168c.376-.915 1.492-1.663 2.482-1.663h18.555c.99 0 2.106.749 2.481 1.663l3.353 8.168c.376.916-.126 1.664-1.115 1.664H19.595c-.989 0-1.491-.748-1.116-1.664zm7.486 10.33c0 .495-.405.9-.9.9h-6.369a.902.902 0 01-.9-.9v-3.056c0-.494.406-.9.9-.9h6.37c.494 0 .899.406.899.9v3.057zm23.36 0c0 .495-.405.9-.899.9h-6.369a.902.902 0 01-.899-.9v-3.056c0-.494.405-.9.9-.9h6.368c.494 0 .9.406.9.9v3.057z" fill="#EEEEFD"/></svg>