<svg width="110" height="110" fill="none" xmlns="http://www.w3.org/2000/svg"><path d="M54.603 9C36.075 9 21 24.075 21 42.605c0 11.193 10.296 28.86 14.723 35.936 3.641 5.82 7.55 11.355 11.007 15.583C52.35 101 53.93 101 54.604 101c.647 0 2.162 0 7.764-6.878 3.465-4.255 7.377-9.788 11.017-15.58 4.456-7.092 14.823-24.794 14.823-35.938C88.208 24.075 73.133 9 54.603 9zm0 60.75c-14.658 0-26.584-11.927-26.584-26.586 0-14.658 11.926-26.584 26.585-26.584s26.585 11.926 26.585 26.584c0 14.66-11.926 26.585-26.585 26.585z" fill="#EEEEFD"/><path d="M74.014 32.963c-.184 0-.373.026-.562.079l-2.134.587-2.216-5.399c-.628-1.53-2.485-2.774-4.138-2.774H44.219c-1.654 0-3.51 1.244-4.138 2.774l-2.214 5.392-2.107-.58a2.129 2.129 0 00-.562-.08c-1.009 0-1.741.772-1.741 1.833v1.26a2.25 2.25 0 002.248 2.247h.242l-.358.871c-.584 1.422-1.058 3.828-1.058 5.364v10.727a2.25 2.25 0 002.248 2.248h2.936a2.25 2.25 0 002.248-2.248v-2.678H67.22v2.678a2.25 2.25 0 002.248 2.248h2.935a2.25 2.25 0 002.248-2.248V44.537c0-1.536-.475-3.942-1.058-5.364l-.358-.87h.272a2.25 2.25 0 002.248-2.248v-1.26c0-1.061-.733-1.832-1.742-1.832zM39.479 37.08l3.353-8.168c.376-.915 1.492-1.663 2.482-1.663h18.555c.99 0 2.106.748 2.481 1.663l3.353 8.168c.376.915-.126 1.664-1.115 1.664H40.595c-.989 0-1.491-.749-1.116-1.664zm7.486 10.33c0 .495-.405.9-.9.9h-6.369a.902.902 0 01-.9-.9v-3.056c0-.494.406-.9.9-.9h6.37c.494 0 .899.406.899.9v3.057zm23.36 0c0 .495-.405.9-.899.9h-6.369a.902.902 0 01-.899-.9v-3.056c0-.494.405-.9.9-.9h6.368c.494 0 .9.406.9.9v3.057z" fill="#EEEEFD"/></svg>