<svg width="112" height="110" fill="none" xmlns="http://www.w3.org/2000/svg"><path d="M105.585 31H93.009a6 6 0 00-6 6v12.576a6 6 0 006 6h12.576a6 6 0 006-6V37a6 6 0 00-6-6zm-87.009 0H6a6 6 0 00-6 6v12.576a6 6 0 006 6h12.576a6 6 0 006-6V37a6 6 0 00-6-6zm42.742 0H48.74a6 6 0 00-6 6v12.576a6 6 0 006 6h12.577a6 6 0 006-6V37a6 6 0 00-6-6zM39.947 55.424H27.371a6 6 0 00-6 6V74a6 6 0 006 6h12.576a6 6 0 006-6V61.424a6 6 0 00-6-6zm45.032-.382H72.402a6 6 0 00-6 6v12.576a6 6 0 006 6H84.98a6 6 0 006-6V61.042a6 6 0 00-6-6z" fill="#EEEEFD"/></svg>