<svg width="110" height="110" fill="none" xmlns="http://www.w3.org/2000/svg"><path d="M34.07 10a3.358 3.358 0 00-2.37 1.036 3.43 3.43 0 00-.952 2.424v5.684h-8.376a5.122 5.122 0 00-4.157 2.15 5.24 5.24 0 00-.703 4.667l1.503 4.552h30.207l1.507-4.539a5.243 5.243 0 00-.699-4.676 5.11 5.11 0 00-4.157-2.154h-8.376V13.46a3.443 3.443 0 00-.99-2.463A3.346 3.346 0 0034.07 10zM11.122 35.06a5.122 5.122 0 00-4.157 2.15 5.24 5.24 0 00-.703 4.668l4.083 12.377a5.126 5.126 0 004.864 3.543h37.796a5.127 5.127 0 004.86-3.535l4.113-12.372a5.243 5.243 0 00-.698-4.676 5.107 5.107 0 00-4.157-2.154h-46zm12.876 27.286v35.243c0 1.883 1.51 3.411 3.375 3.411h13.5c1.864 0 3.374-1.528 3.374-3.41V62.345h-20.25zm24.749 4.548v30.695A7.943 7.943 0 0147.96 101h47.43a3.38 3.38 0 003.23-2.416l5.945-19.762c.887-2.817.408-5.797-1.318-8.18-1.724-2.381-4.392-3.748-7.312-3.748H48.747zm11.25 9.094h2.25c1.242 0 2.25 1.02 2.25 2.274v13.643c0 1.255-1.008 2.274-2.25 2.274h-2.25c-1.242 0-2.25-1.019-2.25-2.274V78.262c0-1.255 1.008-2.273 2.25-2.273zm13.5 0h2.249c1.242 0 2.25 1.02 2.25 2.274v13.643c0 1.255-1.008 2.274-2.25 2.274h-2.25c-1.242 0-2.25-1.019-2.25-2.274V78.262c0-1.255 1.008-2.273 2.25-2.273zm13.499 0h2.25c1.241 0 2.25 1.02 2.25 2.274v13.643c0 1.255-1.009 2.274-2.25 2.274h-2.25c-1.242 0-2.25-1.019-2.25-2.274V78.262c0-1.255 1.008-2.273 2.25-2.273z" fill="#F7F2FD"/></svg>