<svg width="36" height="40" viewBox="0 0 36 40" fill="none" xmlns="http://www.w3.org/2000/svg">
<path d="M33.6548 17.0012L26.8808 13.0887L19.9458 20.0237L26.8803 26.9582L33.6778 23.0327C34.7378 22.3887 35.3703 21.2637 35.3703 20.0237C35.3703 18.7837 34.7373 17.6587 33.6548 17.0012Z" fill="#FFCE00"/>
<path d="M19.9454 20.0234L1.056 0.997925C0.398999 1.65492 0 2.54642 0 3.53192V36.4568C0 37.4423 0.398999 38.3338 1.056 38.9913L19.9454 20.0234Z" fill="url(#paint0_linear_381_368)"/>
<path d="M19.9451 20.0236L26.8801 13.0886L26.8911 13.0776L17.5991 7.72761L5.35015 0.528629C4.24715 -0.151869 2.90966 -0.175369 1.78316 0.458129C1.52516 0.622128 1.29016 0.786628 1.05566 0.997627L19.9451 20.0236Z" fill="#00F076"/>
<path d="M1.05566 38.9912C1.29016 39.2022 1.52516 39.3667 1.78316 39.5307C2.34616 39.8357 2.93316 40.0002 3.51966 40.0002C4.15315 40.0002 4.76315 39.8127 5.32665 39.4842L17.5986 32.3197L26.8906 26.9697L26.8796 26.9587L19.9451 20.0237L1.05566 38.9912Z" fill="#F63448"/>
<defs>
<linearGradient id="paint0_linear_381_368" x1="-8.44197" y1="29.4928" x2="10.5545" y2="10.4959" gradientUnits="userSpaceOnUse">
<stop stop-color="#00E2FF"/>
<stop offset="1" stop-color="#00C5FF"/>
</linearGradient>
</defs>
</svg>
