<svg width="38" height="46" viewBox="0 0 38 46" fill="none" xmlns="http://www.w3.org/2000/svg">
<path d="M31.3661 25.7848C30.1007 19.4167 36.1452 15.6818 36.1452 15.6818C36.1452 15.6818 33.7902 12.2747 29.8323 11.3982C25.8764 10.5197 23.8965 11.6173 21.9204 12.4404C19.9424 13.2656 18.9555 13.2656 18.9555 13.2656C16.1011 13.2656 14.0145 10.2434 8.57608 11.6193C4.82942 12.5648 0.885278 16.8899 0.172662 22.052C-0.539955 27.216 0.99784 33.8053 3.96279 38.9121C6.92774 44.0229 9.94806 45.9436 12.0918 45.9988C14.2356 46.0521 16.3754 44.463 18.9555 44.0761C21.5375 43.6931 23.1266 45.0119 25.6592 45.7245C28.182 46.4352 29.0663 45.7758 31.9721 43.3043C34.8857 40.8328 37.523 33.7442 37.523 33.7442C37.523 33.7442 32.6314 32.1569 31.3661 25.7848Z" fill="black"/>
<path d="M27.7922 7.27817C30.5952 4.42185 29.6458 0 29.6458 0C29.6458 0 25.7096 0.690928 23.0723 3.43478C20.4369 6.18065 20.8732 10.5176 20.8732 10.5176C20.8732 10.5176 24.989 10.1327 27.7922 7.27817Z" fill="black"/>
</svg>
