<svg width="53" height="53" viewBox="0 0 53 53" fill="none" xmlns="http://www.w3.org/2000/svg">
<path d="M31.5723 26.5C31.5723 29.3014 29.3014 31.5723 26.5 31.5723C23.6986 31.5723 21.4277 29.3014 21.4277 26.5C21.4277 23.6986 23.6986 21.4277 26.5 21.4277C29.3014 21.4277 31.5723 23.6986 31.5723 26.5Z" fill="white"/>
<path d="M38.3624 17.5257C38.1186 16.865 37.7296 16.2669 37.2241 15.776C36.7332 15.2706 36.1356 14.8816 35.4745 14.6377C34.9383 14.4295 34.1328 14.1816 32.6492 14.1141C31.0443 14.0409 30.5631 14.0251 26.5002 14.0251C22.4368 14.0251 21.9556 14.0405 20.3511 14.1137C18.8675 14.1816 18.0616 14.4295 17.5258 14.6377C16.8647 14.8816 16.2667 15.2706 15.7762 15.776C15.2707 16.2669 14.8817 16.8645 14.6375 17.5257C14.4293 18.0619 14.1814 18.8677 14.1139 20.3513C14.0407 21.9558 14.0249 22.437 14.0249 26.5004C14.0249 30.5634 14.0407 31.0446 14.1139 32.6495C14.1814 34.1331 14.4293 34.9385 14.6375 35.4747C14.8817 36.1358 15.2703 36.7335 15.7758 37.2244C16.2667 37.7298 16.8643 38.1188 17.5254 38.3626C18.0616 38.5713 18.8675 38.8192 20.3511 38.8867C21.9556 38.9599 22.4364 38.9752 26.4997 38.9752C30.5635 38.9752 31.0447 38.9599 32.6488 38.8867C34.1324 38.8192 34.9383 38.5713 35.4745 38.3626C36.8016 37.8507 37.8505 36.8018 38.3624 35.4747C38.5706 34.9385 38.8185 34.1331 38.8864 32.6495C38.9596 31.0446 38.975 30.5634 38.975 26.5004C38.975 22.437 38.9596 21.9558 38.8864 20.3513C38.8189 18.8677 38.571 18.0619 38.3624 17.5257ZM26.5002 34.3138C22.1844 34.3138 18.6859 30.8157 18.6859 26.5C18.6859 22.1843 22.1844 18.6862 26.5002 18.6862C30.8155 18.6862 34.314 22.1843 34.314 26.5C34.314 30.8157 30.8155 34.3138 26.5002 34.3138ZM34.6229 20.2033C33.6144 20.2033 32.7968 19.3857 32.7968 18.3773C32.7968 17.3688 33.6144 16.5512 34.6229 16.5512C35.6314 16.5512 36.449 17.3688 36.449 18.3773C36.4486 19.3857 35.6314 20.2033 34.6229 20.2033Z" fill="white"/>
<path d="M26.5 0C11.8667 0 0 11.8667 0 26.5C0 41.1333 11.8667 53 26.5 53C41.1333 53 53 41.1333 53 26.5C53 11.8667 41.1333 0 26.5 0ZM41.625 32.7736C41.5514 34.3935 41.2938 35.4994 40.9178 36.4674C40.1273 38.5115 38.5115 40.1273 36.4674 40.9178C35.4998 41.2938 34.3935 41.551 32.774 41.625C31.1513 41.699 30.6329 41.7168 26.5004 41.7168C22.3675 41.7168 21.8495 41.699 20.2264 41.625C18.6069 41.551 17.5006 41.2938 16.533 40.9178C15.5172 40.5357 14.5977 39.9368 13.8375 39.1625C13.0636 38.4027 12.4647 37.4828 12.0826 36.4674C11.7066 35.4998 11.449 34.3935 11.3754 32.774C11.3006 31.1509 11.2832 30.6325 11.2832 26.5C11.2832 22.3675 11.3006 21.8491 11.375 20.2264C11.4486 18.6065 11.7058 17.5006 12.0818 16.5326C12.4639 15.5172 13.0632 14.5973 13.8375 13.8375C14.5973 13.0632 15.5172 12.4643 16.5326 12.0822C17.5006 11.7062 18.6065 11.449 20.2264 11.375C21.8491 11.301 22.3675 11.2832 26.5 11.2832C30.6325 11.2832 31.1509 11.301 32.7736 11.3754C34.3935 11.449 35.4994 11.7062 36.4674 12.0818C37.4828 12.4639 38.4027 13.0632 39.1629 13.8375C39.9368 14.5977 40.5361 15.5172 40.9178 16.5326C41.2942 17.5006 41.5514 18.6065 41.6254 20.2264C41.6994 21.8491 41.7168 22.3675 41.7168 26.5C41.7168 30.6325 41.6994 31.1509 41.625 32.7736Z" fill="white"/>
</svg>
