<svg width="38" height="46" fill="none" xmlns="http://www.w3.org/2000/svg"><path d="M31.366 25.785c-1.265-6.368 4.78-10.103 4.78-10.103s-2.356-3.407-6.314-4.284c-3.956-.878-5.936.22-7.912 1.042-1.978.826-2.965.826-2.965.826-2.854 0-4.94-3.023-10.379-1.647-3.747.946-7.69 5.27-8.403 10.433-.713 5.164.825 11.753 3.79 16.86 2.965 5.11 5.985 7.032 8.129 7.087 2.144.053 4.283-1.536 6.864-1.923 2.582-.383 4.17.936 6.703 1.648 2.523.711 3.407.052 6.313-2.42 2.914-2.471 5.551-9.56 5.551-9.56s-4.892-1.587-6.157-7.96zM27.792 7.278C30.595 4.422 29.646 0 29.646 0s-3.936.69-6.574 3.435c-2.635 2.746-2.199 7.083-2.199 7.083s4.116-.385 6.92-3.24z" fill="#000"/></svg>