<svg width="36" height="40" fill="none" xmlns="http://www.w3.org/2000/svg"><path d="M33.655 17.001L26.88 13.09l-6.935 6.935 6.934 6.934 6.798-3.925a3.495 3.495 0 001.692-3.01c0-1.24-.633-2.364-1.715-3.022z" fill="#FFCE00"/><path d="M19.945 20.023L1.056.998A3.565 3.565 0 000 3.532v32.925c0 .985.399 1.877 1.056 2.534l18.89-18.968z" fill="url(#paint0_linear_381_368)"/><path d="M19.945 20.024l6.935-6.935.011-.011-9.292-5.35L5.35.528a3.475 3.475 0 00-3.567-.07 5.293 5.293 0 00-.727.54l18.89 19.026z" fill="#00F076"/><path d="M1.056 38.991c.234.211.47.376.727.54.563.305 1.15.47 1.737.47.633 0 1.243-.188 1.807-.517l12.272-7.164 9.292-5.35-.011-.011-6.935-6.935L1.055 38.99z" fill="#F63448"/><defs><linearGradient id="paint0_linear_381_368" x1="-8.442" y1="29.493" x2="10.555" y2="10.496" gradientUnits="userSpaceOnUse"><stop stop-color="#00E2FF"/><stop offset="1" stop-color="#00C5FF"/></linearGradient></defs></svg>