<svg width="45" height="45" viewBox="0 0 45 45" fill="none" xmlns="http://www.w3.org/2000/svg">
<path fill-rule="evenodd" clip-rule="evenodd" d="M22.5 0C34.9264 0 45 10.0736 45 22.5C45 34.1701 36.1153 43.7643 24.7413 44.8892V22.5764L27.0369 24.872C27.4586 25.2937 28.026 25.5284 28.6222 25.5284C29.2177 25.5284 29.7857 25.2932 30.2067 24.872C31.0819 23.9964 31.0821 22.5773 30.2066 21.7018L24.0844 15.5802C23.2099 14.7056 21.7904 14.7057 20.9157 15.5802L14.793 21.7018C13.9177 22.577 13.9178 23.9968 14.793 24.872C15.6682 25.7472 17.0881 25.7473 17.9633 24.872L20.2584 22.5766V44.8892C8.88449 43.764 0 34.1699 0 22.5C0 10.0736 10.0737 0 22.5 0Z" fill="#2B454E"/>
</svg>
